<?xml version="1.0" standalone="no"?>
<!DOCTYPE svg PUBLIC "-//W3C//DTD SVG 20010904//EN"
 "http://www.w3.org/TR/2001/REC-SVG-20010904/DTD/svg10.dtd">
<svg version="1.0" xmlns="http://www.w3.org/2000/svg"
 width="2051.000000pt" height="2051.000000pt" viewBox="0 0 2051.000000 2051.000000"
 preserveAspectRatio="xMidYMid meet">
<metadata>
Created by potrace 1.14, written by Peter Selinger 2001-2017
</metadata>
<g transform="translate(0.000000,2051.000000) scale(0.100000,-0.100000)"
fill="#000000" stroke="none">
<path d="M7660 14746 c-146 -39 -253 -145 -295 -291 -16 -54 -18 -153 -19
-1223 l-1 -1165 -1175 -2 c-646 -1 -1186 -5 -1200 -8 -46 -12 -144 -65 -179
-98 -50 -47 -99 -124 -118 -188 -15 -51 -17 -147 -18 -1031 -1 -1054 -1 -1054
52 -1152 53 -98 163 -182 270 -206 21 -5 480 -9 1018 -10 1065 -1 1043 -2
1147 55 65 36 134 112 172 193 l31 65 5 1190 5 1190 3860 1 c3106 0 3869 3
3905 13 107 31 210 111 259 203 50 95 50 89 48 1157 l-2 996 -25 58 c-52 121
-143 206 -263 246 l-61 21 -3685 -1 c-2874 0 -3696 -3 -3731 -13z"/>
<path d="M9990 11589 c-60 -9 -138 -37 -175 -62 -44 -29 -770 -754 -810 -807
-94 -128 -102 -327 -17 -460 16 -25 202 -219 415 -431 333 -334 395 -391 449
-418 78 -38 133 -50 212 -46 70 3 141 26 200 63 23 14 215 199 428 412 389
389 414 419 447 520 15 49 20 141 10 197 -22 118 -34 132 -452 551 -216 217
-409 405 -431 419 -78 50 -189 75 -276 62z"/>
<path d="M12690 11589 c-71 -9 -74 -10 -143 -42 -50 -23 -113 -82 -456 -424
-364 -364 -401 -404 -432 -468 -32 -66 -34 -76 -34 -176 0 -101 1 -108 37
-180 34 -69 65 -102 435 -470 243 -243 414 -405 438 -417 143 -71 311 -61 437
26 67 47 792 781 821 832 73 128 70 306 -8 429 -12 20 -198 212 -413 427 -271
270 -406 399 -441 417 -63 35 -168 55 -241 46z"/>
<path d="M9990 7813 c-25 -14 -103 -57 -175 -96 -71 -38 -164 -88 -205 -111
-148 -80 -236 -127 -277 -148 l-43 -22 0 -99 0 -100 87 -116 c48 -64 90 -118
93 -121 18 -15 90 -119 99 -142 15 -40 -2 -76 -45 -94 -26 -11 -72 -14 -184
-13 -233 2 -250 18 -250 237 l0 132 -102 -2 -102 -3 -2 -125 c-2 -192 -28
-232 -153 -236 -103 -4 -153 27 -165 101 -2 17 -5 82 -5 146 l-1 117 -95 0
c-63 1 -97 -3 -102 -11 -4 -6 -8 -64 -9 -127 -3 -186 -34 -229 -164 -226 -116
3 -158 53 -158 186 0 132 12 118 -102 119 -98 2 -100 1 -100 -21 -3 -178 -7
-204 -30 -245 -13 -24 -33 -46 -44 -49 -36 -12 -77 -6 -98 13 -43 39 -49 64
-57 231 -1 10 -25 12 -103 10 l-101 -3 -3 -82 c-5 -144 -64 -204 -161 -164
-54 22 -70 72 -73 229 0 23 -2 23 -102 20 l-102 -3 -1 -70 c-2 -79 -21 -125
-62 -152 -23 -16 -57 -18 -248 -21 -275 -4 -265 1 -265 -142 l0 -97 208 -1
c282 0 340 16 390 114 l20 39 10 -25 c18 -44 60 -92 101 -116 48 -27 148 -38
203 -23 52 14 104 62 121 112 l14 42 21 -42 c68 -132 263 -162 358 -55 20 23
56 103 51 114 -1 2 4 -3 11 -11 6 -8 12 -20 12 -26 0 -20 64 -78 109 -98 52
-23 170 -31 228 -16 62 17 114 59 138 112 l23 48 22 -47 c25 -51 89 -99 149
-111 55 -11 182 -8 221 5 61 21 130 99 130 146 0 11 12 -3 26 -33 29 -58 75
-94 146 -115 29 -9 103 -13 228 -12 165 1 190 4 231 22 60 28 113 84 128 135
l13 42 18 -28 c31 -47 114 -120 166 -145 41 -20 65 -24 149 -24 91 0 105 2
150 27 45 25 95 81 95 107 0 5 5 10 10 10 6 0 10 -7 10 -16 0 -18 35 -70 65
-97 52 -46 162 -67 240 -45 52 15 101 61 121 114 l16 43 22 -42 c43 -82 159
-133 274 -122 146 14 241 107 271 267 11 56 7 245 -7 313 l-7 40 -109 3 -108
2 6 -24 c11 -45 26 -161 26 -208 0 -119 -77 -185 -155 -134 -37 25 -55 68 -60
148 -2 40 -4 78 -4 84 -1 16 -188 17 -198 1 -4 -6 -8 -45 -10 -85 -3 -76 -17
-114 -51 -146 -26 -23 -82 -23 -121 0 -45 26 -56 69 -60 221 -1 21 -5 22 -103
21 l-103 0 -1 -73 c-1 -119 -44 -167 -152 -171 -132 -5 -159 20 -487 451 -37
50 -72 96 -78 102 -6 9 -4 15 9 20 18 6 157 81 299 160 33 18 97 52 143 75
l82 43 0 117 c0 65 -3 118 -7 118 -5 -1 -28 -12 -53 -27z"/>
<path d="M13532 7730 c-111 -61 -205 -110 -207 -110 -3 0 -22 -11 -43 -23 -20
-13 -68 -41 -107 -61 -38 -20 -97 -52 -130 -70 l-60 -33 0 -98 -1 -98 104
-136 c56 -75 109 -143 116 -152 58 -70 78 -124 58 -156 -21 -34 -65 -42 -216
-42 -246 1 -257 11 -260 227 l-2 137 -101 1 -101 2 -4 -137 c-3 -112 -7 -142
-23 -168 -23 -39 -70 -59 -142 -62 -49 -2 -53 0 -54 21 -2 35 -5 61 -13 99 -3
19 -6 36 -6 39 1 3 -9 32 -20 64 -61 178 -176 277 -322 278 -67 0 -90 -6 -155
-37 -134 -66 -221 -230 -211 -399 9 -149 76 -234 223 -284 24 -8 98 -15 183
-17 79 -2 146 -5 149 -8 10 -11 -18 -75 -48 -105 -49 -50 -108 -67 -229 -67
-102 0 -181 7 -227 21 -27 7 -25 16 -27 -115 -2 -98 0 -104 20 -112 50 -18
219 -28 309 -17 188 22 318 144 356 332 7 36 17 66 23 67 98 5 153 23 194 62
13 12 35 45 48 72 13 28 23 42 24 31 0 -30 39 -90 73 -113 63 -42 120 -51 317
-49 171 2 189 4 233 25 58 29 114 92 123 139 l7 36 19 -25 c54 -68 119 -125
168 -148 51 -24 65 -26 190 -26 123 1 140 3 190 26 99 46 157 127 180 252 12
68 8 311 -8 402 l-7 40 -104 1 -103 0 7 -70 c30 -306 20 -367 -69 -401 -53
-20 -135 -16 -185 9 -54 28 -137 120 -271 301 -25 33 -47 62 -50 65 -13 13
-130 169 -130 173 0 5 48 32 235 132 174 94 291 158 295 161 6 7 7 234 1 234
-4 0 -97 -50 -209 -110z m-1465 -735 c26 -16 57 -46 74 -73 27 -43 35 -64 55
-146 l7 -28 -154 4 c-230 7 -265 30 -250 165 2 21 64 85 96 99 44 18 119 9
172 -21z"/>
<path d="M7435 7507 c-24 -24 -32 -40 -30 -62 2 -17 3 -36 4 -43 2 -29 53 -62
95 -62 46 1 69 14 90 55 21 40 12 85 -24 118 -44 39 -92 37 -135 -6z"/>
<path d="M13825 7526 c-59 -25 -73 -106 -27 -156 25 -29 45 -35 98 -31 37 2
74 49 74 93 0 50 -13 74 -50 93 -35 18 -55 18 -95 1z"/>
<path d="M14080 7533 c-8 -3 -25 -15 -37 -26 -68 -62 -5 -187 86 -170 85 15
119 114 57 172 -24 22 -79 35 -106 24z"/>
<path d="M12601 7411 c-29 -27 -33 -37 -33 -76 0 -45 5 -59 31 -86 25 -24 38
-29 79 -29 43 0 55 5 81 31 34 34 41 85 19 134 -27 60 -125 74 -177 26z"/>
<path d="M8295 7410 c-49 -19 -73 -86 -49 -135 40 -85 166 -73 188 17 21 85
-57 152 -139 118z"/>
<path d="M8512 7390 c-67 -67 -25 -170 70 -170 60 0 98 38 98 97 0 59 -32 93
-91 100 -41 5 -48 2 -77 -27z"/>
<path d="M7328 7305 c-28 -16 -49 -63 -46 -104 2 -13 15 -37 31 -52 53 -54
146 -29 165 44 24 89 -67 157 -150 112z"/>
<path d="M7560 7293 c-28 -26 -36 -51 -31 -106 2 -33 50 -67 93 -67 66 0 96
27 105 96 3 25 -2 39 -27 68 -42 47 -94 50 -140 9z"/>
<path d="M8792 6365 c-76 -33 -65 -162 16 -185 49 -13 103 7 121 47 24 52 6
115 -40 139 -35 17 -55 17 -97 -1z"/>
<path d="M9020 6351 c-31 -25 -35 -35 -35 -74 0 -76 55 -116 131 -95 41 11 64
43 66 91 2 61 -43 107 -106 107 -12 0 -37 -13 -56 -29z"/>
<path d="M6319 5955 c-5 -60 -2 -115 6 -118 6 -2 67 -3 138 -2 l127 0 1 -25
c0 -14 1 -183 1 -376 l0 -351 79 -2 79 -2 2 378 3 378 135 0 135 0 2 63 c1 34
-1 63 -5 63 -4 1 -163 2 -354 3 -227 1 -348 -2 -349 -9z"/>
<path d="M8355 5960 c-1 -3 -3 -201 -3 -442 l0 -436 73 -1 74 -1 3 218 c3 236
9 263 63 298 38 25 106 29 144 9 55 -28 61 -58 62 -305 l1 -221 75 2 75 2 -4
256 c-4 246 -5 258 -27 296 -44 76 -101 105 -202 105 -63 0 -127 -27 -161 -65
l-23 -27 -5 159 -5 158 -68 0 c-38 0 -70 -2 -72 -5z"/>
<path d="M11351 5960 c-5 -4 -8 -844 -2 -871 0 -4 32 -7 71 -8 l69 -1 3 147 3
146 123 -146 124 -145 90 -1 90 -1 -28 37 c-15 21 -31 40 -34 43 -15 13 -210
251 -210 257 0 5 86 111 100 123 7 6 128 147 148 171 11 15 5 17 -72 17 -84 1
-85 0 -109 -31 -13 -18 -37 -46 -53 -63 -16 -17 -50 -55 -75 -85 -25 -30 -58
-67 -72 -84 l-26 -30 -1 265 0 266 -66 -1 c-36 0 -69 -2 -73 -5z"/>
<path d="M13735 5960 c-1 -3 -3 -202 -3 -442 l0 -437 73 0 73 0 4 217 c3 235
9 263 63 298 38 25 106 29 144 9 55 -28 62 -59 62 -305 l1 -218 75 -1 74 -1
-2 242 c-1 253 -6 288 -49 347 -65 92 -273 93 -347 3 l-22 -27 -1 160 0 160
-71 0 c-39 0 -72 -2 -74 -5z"/>
<path d="M12687 5892 c-2 -4 -3 -42 -2 -84 1 -85 2 -84 -71 -79 -18 2 -22 -4
-25 -31 -8 -68 -2 -77 49 -80 l47 -3 1 -210 c1 -138 5 -220 13 -240 28 -69 90
-93 229 -86 30 1 32 3 28 29 -2 15 -5 39 -5 55 -1 25 -4 27 -45 27 -73 0 -76
11 -76 237 l0 193 68 0 67 0 -2 43 c-1 23 -2 48 -2 54 -1 9 -20 12 -63 11
l-63 -2 -3 86 -3 86 -69 1 c-38 0 -71 -2 -73 -7z"/>
<path d="M7146 5723 c-66 -23 -147 -99 -176 -165 -34 -78 -33 -226 1 -303 15
-33 66 -103 89 -122 104 -85 304 -87 410 -3 36 28 99 116 89 124 -2 2 -33 9
-68 16 -51 11 -66 11 -69 1 -7 -20 -45 -52 -79 -67 -66 -28 -152 -12 -200 38
-35 38 -62 107 -45 117 6 4 110 6 232 6 122 0 226 3 233 7 17 10 9 94 -16 167
-26 77 -77 138 -143 171 -64 31 -186 38 -258 13z m198 -121 c37 -22 64 -59 72
-98 l6 -31 -165 0 c-181 -1 -173 -4 -148 59 31 81 152 117 235 70z"/>
<path d="M7855 5727 c-142 -47 -218 -172 -211 -349 8 -185 130 -309 305 -309
125 -1 236 64 281 162 l19 44 -67 16 -67 16 -19 -39 c-28 -59 -91 -85 -173
-73 -77 11 -123 81 -128 193 -3 87 11 137 54 182 43 45 99 59 158 40 49 -16
60 -26 84 -71 l19 -37 62 14 c34 8 64 17 67 20 3 3 -5 24 -17 47 -54 101 -131
149 -251 154 -45 2 -93 -3 -116 -10z"/>
<path d="M9290 5717 c-19 -10 -44 -27 -56 -38 -25 -24 -36 -24 -33 -1 5 50 3
51 -71 50 -43 -1 -70 -5 -71 -12 -1 -14 -1 -607 0 -623 1 -16 141 -17 142 0 0
7 1 100 2 207 2 180 4 199 25 242 28 58 74 83 139 75 47 -5 79 -27 96 -67 6
-14 12 -117 13 -235 2 -115 3 -216 3 -222 1 -9 22 -13 71 -13 l70 0 1 33 c5
194 0 433 -11 476 -16 67 -68 124 -128 140 -62 17 -150 11 -192 -12z"/>
<path d="M9955 5734 c-111 -29 -199 -116 -225 -224 -15 -60 -15 -177 0 -215 5
-14 7 -25 4 -25 -10 0 29 -63 63 -101 153 -169 456 -118 534 90 22 59 28 153
16 230 -15 96 -83 182 -176 224 -45 20 -171 32 -216 21z m154 -134 c70 -40
104 -134 90 -248 -25 -192 -256 -223 -317 -43 -24 69 -10 194 28 247 43 61
133 80 199 44z"/>
<path d="M10857 5729 c-108 -26 -169 -91 -169 -178 1 -111 60 -157 249 -196
95 -20 142 -41 156 -72 24 -54 -37 -103 -128 -103 -64 0 -118 30 -140 77 -10
21 -19 39 -20 41 -1 1 -24 -2 -51 -9 -27 -6 -56 -12 -64 -14 -37 -6 19 -109
84 -152 58 -40 111 -55 190 -55 80 0 133 15 192 55 57 38 87 91 86 151 -3 113
-53 151 -265 201 -112 26 -136 38 -150 78 -8 21 32 66 60 68 79 6 103 4 141
-12 28 -12 47 -28 55 -47 7 -17 18 -28 27 -26 64 12 112 22 115 26 8 8 -31 72
-63 104 -64 62 -197 89 -305 63z"/>
<path d="M12142 5725 c-114 -35 -185 -121 -206 -249 -34 -198 71 -371 244
-402 110 -19 225 8 292 70 34 31 68 83 68 104 0 5 -28 15 -61 21 l-62 13 -28
-35 c-35 -43 -69 -55 -141 -53 -72 1 -130 40 -154 101 -9 24 -14 49 -12 57 4
10 54 13 239 13 l234 1 0 44 c2 145 -72 265 -190 309 -64 24 -157 27 -223 6z
m195 -127 c34 -20 79 -100 68 -118 -3 -4 -77 -8 -165 -7 -175 1 -172 0 -146
61 35 83 160 116 243 64z"/>
<path d="M13255 5733 c-151 -40 -237 -171 -230 -351 5 -145 82 -259 199 -296
159 -50 326 12 385 144 l20 45 -27 8 c-15 4 -43 10 -62 13 -19 3 -37 8 -39 10
-2 2 -12 -14 -23 -35 -46 -93 -183 -108 -257 -28 -44 48 -62 193 -33 268 50
129 229 145 286 25 16 -34 16 -34 58 -24 24 5 51 11 62 14 29 6 30 11 11 54
-43 96 -136 154 -255 157 -41 1 -84 -1 -95 -4z"/>
</g>
</svg>
